<?xml version="1.0" encoding="utf-8"?>
<!-- Generator: Adobe Illustrator 19.2.0, SVG Export Plug-In . SVG Version: 6.00 Build 0)  -->
<svg version="1.1" id="Слой_1" xmlns="http://www.w3.org/2000/svg" xmlns:xlink="http://www.w3.org/1999/xlink" x="0px" y="0px"
	 viewBox="0 0 694.9 645.3" style="enable-background:new 0 0 694.9 645.3;" xml:space="preserve">
<style type="text/css">
	.st0{fill:none;}
	.st1{fill:#282828;}
	.st2{fill:none;stroke:#282828;stroke-width:4;stroke-linecap:round;stroke-linejoin:round;stroke-miterlimit:10;}
	.st3{fill:none;stroke:#282828;stroke-width:4;stroke-miterlimit:10;}
	.st4{fill:url(#SVGID_2_);}
</style>
<pattern  x="4.7" y="643.4" width="6" height="6" patternUnits="userSpaceOnUse" id="SVGID_1_" viewBox="0 -6 6 6" style="overflow:visible;">
	<g>
		<rect y="-6" class="st0" width="6" height="6"/>
		<g>
			<rect y="-6" class="st0" width="6" height="6"/>
			<g>
				<rect y="-6" class="st0" width="6" height="6"/>
				<circle class="st1" cx="3" cy="-3" r="2"/>
			</g>
		</g>
	</g>
</pattern>
<path id="XMLID_9_" class="st2" d="M6,418.1c40.1-24.1,68.6-41.3,72.4-43.7c17.4-10.7,34.8-21.5,52.2-32.1
	c8.8-5.4,17.8-10.5,26.7-15.7c2.8-1.6,5.2-1.2,7.2,1.3c1.1,1.3,2.2,2.7,3.6,4.5c10.8-6.3,21.6-12.2,31.9-18.7
	c9.9-6.2,19.9-12.6,28.9-19.9c14.4-11.8,24.2-27.1,29-44.7c6-22,17.1-40.9,31.6-58.3c14.7-17.6,31.4-33.2,48.6-48.5
	c15-13.3,30.5-26,44.7-40c12-11.8,22.7-25,33.8-37.8c2-2.3,3.4-2.7,6.1-1.6c13.8,5.2,20.5,17.1,17.9,32.7
	c-3.1,18.2-10.6,26.9-19.2,38.7c-7.6,10.6-29.1,32.7-36.1,61"/>
<path id="XMLID_12_" class="st3" d="M246.9,465c-11-24.3-32.2-65.6-46.9-87.9c-10.1-15.2-21-29.8-31.6-44.7"/>
<path id="XMLID_4_" class="st2" d="M470.1,389.2c0,0-22.7,7.4-29.3,9.7c-33.4,11.7-67.9,18.8-103.3,22.1c-2.7,0.3-5.5,0.6-8.1,0.5
	c-6.2-0.4-11.4,2.1-16.8,4.7c-23,11-44.5,24.5-65.7,38.9c2.5,6.2,5.1,12.3,7.5,18.5c6.1,15.8,11.6,31.7,15,48.3
	c1.1,5.1,0.4,6.7-4.3,9.8c-27.6,17.7-55.2,35.3-82.8,53c-16.2,10.4-32.4,20.8-48.6,31.2"/>
<path id="XMLID_104_" class="st2" d="M537.5,331.1c-6.7,17.3-11.6,29.9-11.6,29.9 M560.2,272.9c-2.4,6.1-5.3,13.9-7.5,19.7
	 M441.3,92.7c9.5-21.1,23.5-51.5,24-52.4c5.2-9,13.3-13,23.7-11.9c9.9,1,122.8,18.6,134,21c14.4,3.1,17.1,10,14.5,21.3
	c-1.1,4.6-21.7,57.9-44,115.6 M338.9,322l85.6-191.8 M525.9,361c-6.7,17.8-20.9,26.5-40.8,22.9c-14.9-2.7-29.6-6.8-44.4-10.7
	c-29.3-7.7-58.5-15.6-87.8-23.6c-7.6-2.1-14.3-6-15.4-14.4c-0.6-4.3,0-9.1,1.4-13.3 M582.3,185.6C596.8,148.8,623,82.9,623,82.9
	L466.6,57L352.7,312.4L516.2,354l36-88.1 M437.9,359.6c4.8,0.1,7.7-2.3,8.4-6c0.5-3.3-1.8-7-5.5-7.9c-10.6-2.6-21.3-5.2-32-7.7
	c-3.3-0.8-5.8,0.6-7.1,3.7c-1.9,4.5-0.1,8.6,4.8,10.1c4,1.3,8.2,2.2,12.3,3.2C425.5,356.6,432.1,358.2,437.9,359.6z"/>
<path id="XMLID_5_" class="st3" d="M565.4,297.2c1.6-4.4,6.7-18.1,6.7-18.1s-8.1-4.1-11.9-6.3c-14.8-8.4-14.5-24.8-7.5-34.9
	c2.9-4.2,7.3-6.4,12.3-6.6c14.1-0.5,27.6,2,40,8.5c10,5.2,14,13.6,11.4,24.4c-4.9,20.2-19.2,36.3-38.5,44.7"/>
<path id="XMLID_11_" class="st3" d="M583.4,232.7c-11.4-1.8-21.1-12.9-20.9-24.2c0.1-5.8,1.2-11.4,5.2-16.2
	c3.8-4.5,8.7-6.7,14.6-6.6c13.5,0.1,26.5,2.8,38.7,8.6c10.1,4.9,14.6,13.3,13.1,24.2c-1.3,9.6-8.8,24.3-15.4,30.2l-2.6,3"/>
<path id="XMLID_101_" class="st3" d="M532.5,373.2c0,0,9.5-21.8,11.8-29.1c0.7-2.3,1.7-3.2,0-4.9c-5.5-5.6-7.3-6.9-8.9-14.8
	c-1.6-8.1-0.6-15.9,3.1-23.2c3.4-6.9,10.1-9.8,17.7-8.1c13.4,3.1,31.6,23.4,29.9,38.7c-0.9,7.6-4.7,13.3-9.6,18.8
	C567.7,360.2,547,370.5,532.5,373.2z"/>
<path id="XMLID_7_" class="st3" d="M614.9,176.4"/>
<path id="XMLID_6_" class="st3" d="M624.5,137.7c9.7-2.2,30.9-5.7,40.9-3.8c7.4,1.4,10.9,6,11.7,13.2c1.2,10.4-4.9,16.6-12.7,21.9
	c-15.8,10.6-33.1,15-52,21.8"/>
<path id="XMLID_17_" class="st3" d="M623,49.4c18.4,4.1,26.7,17,21.7,34.9c-4.1,14.6-40.7,104-40.7,104"/>
<path id="XMLID_10_" class="st3" d="M532.5,373.2c0,0-4.5,9.1-9.3,13.7c-3.4,3.2-13.1,6.8-20.8,7.2c-10.4,0.5-20.4-1.9-30.4-4.4
	l-105.4-27c-10.1-2.6-27.6-7.7-29.4-21.7c-1.3-10,1.6-19,1.6-19"/>
<polygon id="XMLID_42_" class="st2" points="596.2,115.6 463.2,93.4 471.1,75.5 604,97.5 "/>
<path id="XMLID_8_" class="st3" d="M440.7,21.9"/>
<polygon class="st2" points="548.3,212.6 465.7,197.6 449,235.4 497,245 506.1,258.1 512.2,248.1 533.4,252.3 "/>
<polygon class="st2" points="463.2,261.5 395.5,247.6 383.2,277.5 398.3,281.7 395.6,287.9 412.7,284.6 451.7,292.4 "/>
<pattern  id="SVGID_2_" xlink:href="#SVGID_1_" patternTransform="matrix(1 0 0 1 2 16436.8008)">
</pattern>
<path class="st4" d="M264.8,547.1c-0.1-0.2-0.2-0.6-0.2-0.8c-7.6-21.5-22.7-62.6-31.8-82.8c-11-24.4-23.3-48.2-38.1-70.6
	c-10.1-15.2-26.8-38.6-38.7-50.9c-3.7-4.3-3-6-10.4-1.4C128.3,350.9,72,384.3,6.5,424.1c-11,6.4-5.4,8.7-2.1,12.7
	c20.9,25,38.8,54.2,60.6,92c22.4,38.9,39.9,76.7,51.2,109.1c1.8,5.2,0.6,11.1,12.6,4.3c16.5-10.6,33.1-21.4,50.6-33.1
	c0.2-0.1,0.3-0.2,0.5-0.3c6.5-3.7,12.9-7.4,19.4-11.1c0.1-0.1,0.3-0.2,0.4-0.3c21.7-14.1,40.5-26.4,62.2-40.5
	C265.3,554.2,267,554.7,264.8,547.1z"/>
<path class="st2" d="M645.5,32c4.5,0.1,9,1.9,12.4,5.5c3.3,3.6,4.8,8.2,4.5,12.8"/>
<path class="st2" d="M692.9,45.3c0.2-10.6-3.5-21.3-11.3-29.7S663.5,2.6,652.9,2"/>
</svg>
