<svg id="Layer_1" data-name="Layer 1" xmlns="http://www.w3.org/2000/svg" viewBox="0 0 90 90"><title>icon-customise-fields</title><rect x="0.93" y="15.52" width="60" height="19.65" fill="none" stroke="#338fec" stroke-miterlimit="10" stroke-width="1.5"/><rect x="60.93" y="15.52" width="20" height="19.65" fill="none" stroke="#338fec" stroke-miterlimit="10" stroke-width="1.5"/><line x1="70.93" y1="19.17" x2="70.93" y2="31.17" fill="none" stroke="#338fec" stroke-miterlimit="10" stroke-width="1.5"/><polyline points="73.43 23.17 73.43 21.17 68.43 21.17 68.43 25.17 73.43 25.17 73.43 29.17 68.43 29.17 68.43 27.17" fill="none" stroke="#338fec" stroke-miterlimit="10" stroke-width="1.5"/><rect x="7.36" y="22.17" width="37.14" height="5.71" fill="#e7f3ff" stroke="#e7f3ff" stroke-miterlimit="10" stroke-width="1.5"/><rect x="0.93" y="35.17" width="60" height="19.65" fill="none" stroke="#338fec" stroke-miterlimit="10" stroke-width="1.5"/><rect x="60.93" y="35.35" width="20" height="19.48" fill="none" stroke="#338fec" stroke-miterlimit="10" stroke-width="1.5"/><line x1="70.93" y1="39" x2="70.93" y2="51" fill="none" stroke="#338fec" stroke-miterlimit="10" stroke-width="1.5"/><polyline points="73.43 43 73.43 41 68.43 41 68.43 45 73.43 45 73.43 49 68.43 49 68.43 47" fill="none" stroke="#338fec" stroke-miterlimit="10" stroke-width="1.5"/><rect x="7.36" y="41.83" width="42.14" height="5.71" fill="#e7f3ff" stroke="#e7f3ff" stroke-miterlimit="10" stroke-width="1.5"/><rect x="0.93" y="54.83" width="60" height="19.65" fill="none" stroke="#338fec" stroke-miterlimit="10" stroke-width="1.5"/><rect x="60.93" y="55" width="20" height="19.48" fill="none" stroke="#338fec" stroke-miterlimit="10" stroke-width="1.5"/><line x1="70.93" y1="58.65" x2="70.93" y2="70.65" fill="none" stroke="#338fec" stroke-miterlimit="10" stroke-width="1.5"/><polyline points="73.43 62.65 73.43 60.65 68.43 60.65 68.43 64.65 73.43 64.65 73.43 68.65 68.43 68.65 68.43 66.65" fill="none" stroke="#338fec" stroke-miterlimit="10" stroke-width="1.5"/><rect x="7.36" y="61.48" width="25.64" height="5.71" fill="#e7f3ff" stroke="#e7f3ff" stroke-miterlimit="10" stroke-width="1.5"/><rect width="90" height="90" fill="none" opacity="0.4"/></svg>