<svg xmlns="http://www.w3.org/2000/svg" viewBox="0 0 81.5 81.5"><title>Asset 5</title><g id="Layer_2" data-name="Layer 2"><g id="Layer_1-2" data-name="Layer 1"><rect x="0.75" y="0.75" width="80" height="80" fill="#e7f3ff" stroke="#338fec" stroke-miterlimit="10" stroke-width="1.5"/><rect x="7.75" y="28.45" width="44" height="34.66" fill="#fff"/><polygon points="12.41 35.36 12.41 38.97 16.02 42.58 19.63 42.58 23.24 38.97 23.24 35.36 19.63 31.75 16.02 31.75 12.41 35.36" fill="#e7f3ff"/><polygon points="9.24 62.11 17.91 49.76 22.24 54.09 35.23 36.76 48.23 54.09 48.23 62.11 9.24 62.11" fill="#e7f3ff"/><rect x="7.75" y="28.45" width="44" height="34.66" fill="none" stroke="#fff" stroke-miterlimit="10" stroke-width="1.5"/><rect x="59.75" y="19.75" width="21" height="61" fill="#fff"/><rect x="0.75" y="10.75" width="80" height="7" fill="#fff"/><rect x="0.75" y="0.75" width="80" height="10" fill="none" stroke="#338fec" stroke-miterlimit="10" stroke-width="1.5"/><rect x="37.75" y="42.75" width="23" height="38" fill="#fff" stroke="#338fec" stroke-miterlimit="10" stroke-width="1.5"/><rect x="0.75" y="0.75" width="80" height="80" fill="none" stroke="#338fec" stroke-miterlimit="10" stroke-width="1.5"/><rect x="60.75" y="42.75" width="5" height="4.92" fill="#fff" stroke="#338fec" stroke-miterlimit="10" stroke-width="1.5"/><rect x="61.75" y="35.75" width="4" height="4" transform="translate(127.5 75.5) rotate(180)" fill="#e7f3ff"/><rect x="40.75" y="46.75" width="4" height="4" transform="translate(-6 91.5) rotate(-90)" fill="#e7f3ff"/><rect x="51.05" y="44.45" width="2" height="8.6" transform="translate(3.3 100.8) rotate(-90)" fill="#e7f3ff"/><rect x="50.09" y="53.41" width="2" height="6.67" transform="translate(-5.66 107.84) rotate(-90)" fill="#e7f3ff"/><rect x="51.05" y="60.45" width="2" height="8.6" transform="translate(-12.7 116.8) rotate(-90)" fill="#e7f3ff"/><rect x="51.62" y="67.88" width="2" height="9.74" transform="translate(-20.13 125.37) rotate(-90)" fill="#e7f3ff"/><rect x="40.75" y="54.75" width="4" height="4" transform="translate(-14 99.5) rotate(-90)" fill="#e7f3ff"/><rect x="40.75" y="62.75" width="4" height="4" transform="translate(-22 107.5) rotate(-90)" fill="#e7f3ff"/><rect x="40.75" y="70.75" width="4" height="4" transform="translate(-30 115.5) rotate(-90)" fill="#e7f3ff"/><rect x="61.75" y="28.75" width="4" height="4" transform="translate(127.5 61.5) rotate(180)" fill="#e7f3ff"/><rect x="61.75" y="21.75" width="4" height="4" transform="translate(127.5 47.5) rotate(180)" fill="#e7f3ff"/></g></g></svg>