<svg width="91" height="68" viewBox="0 0 91 68" xmlns="http://www.w3.org/2000/svg"><title>icon-customise-dashboards</title><g fill="none" fill-rule="evenodd"><path stroke="#338FEC" stroke-width="1.5" fill="#FFF" fill-rule="nonzero" d="M8.667 62.5H53.11V18.056H34.222v7.222h-10v11.11H13.667v8.334h-5z"/><path stroke="#338FEC" stroke-width="1.5" fill="#FFF" fill-rule="nonzero" d="M8.667 65.833v-8.889h10v-11.11h10v-6.667h10v-8.89H53.11v35.556"/><path fill="#E7F3FF" fill-rule="nonzero" d="M59.633 1.144h30.156v65.667H59.633z"/><path stroke="#338FEC" stroke-width="1.5" fill="#FFF" fill-rule="nonzero" d="M76.444 19.833h-11.11V15.39h11.11v2.222zM72 24.278h11.111v4.444H72z"/><path stroke="#338FEC" stroke-width="1.5" d="M80.889 24.278V17.61h-4.445"/><path stroke="#338FEC" stroke-width="1.5" fill="#FFF" fill-rule="nonzero" d="M76.444 42.056h-11.11V37.61h11.11v2.222zM72 46.5h11.111v4.444H72z"/><path stroke="#338FEC" stroke-width="1.5" d="M80.889 46.5v-6.667h-4.445"/><path stroke="#338FEC" stroke-width="1.5" fill="#E7F3FF" fill-rule="nonzero" d="M24.267 66.389l-.045-12.778h8.89v-5.555H42v-6.667h11.111v25"/><path stroke="#338FEC" stroke-width="1.5" d="M.889 1.144h88.889v65.511H.889z"/><path opacity=".4" d="M0-16h100V84H0z"/></g></svg>