<svg id="Layer_1" data-name="Layer 1" xmlns="http://www.w3.org/2000/svg" viewBox="0 0 90 90"><title>icon-security-authentication</title><polygon points="63.97 75.84 54.47 75.94 54.47 52.41 63.97 48.67 63.97 75.84" fill="#e7f3ff"/><polygon points="18.92 12.5 24.34 23.5 18.76 34.22 9.76 30.32 18.92 12.5" fill="#e7f3ff"/><polygon points="54.48 4.5 45.59 12.5 18.92 12.5 18.76 4.5 54.48 4.5" fill="#e7f3ff"/><polygon points="9.76 66.75 46.57 66.75 46.76 57.76 9.76 57.76 9.76 66.75" fill="#e7f3ff"/><polyline points="18.76 4.5 54.48 4.5 63.29 22.28" fill="none" stroke="#338fec" stroke-miterlimit="10" stroke-width="1.5"/><polyline points="45.76 66.5 9.76 66.5 9.76 30.32 18.93 12.5 45.59 12.5 54.76 30.32 54.76 65.88 54.76 75.5 0.76 75.5 0.76 30.32 9.93 12.86" fill="none" stroke="#338fec" stroke-miterlimit="10" stroke-width="1.5"/><polyline points="0.76 84.5 54.48 84.5 63.76 74.77 63.76 48.5" fill="none" stroke="#338fec" stroke-miterlimit="10" stroke-width="1.5"/><line x1="63.76" y1="29.5" x2="63.76" y2="38.5" fill="none" stroke="#338fec" stroke-miterlimit="10" stroke-width="1.5"/><polyline points="46.76 57.5 46.76 33.96 41.23 23.5 24.34 23.5 18.76 34.22 18.76 57.5 36.76 57.5" fill="none" stroke="#338fec" stroke-miterlimit="10" stroke-width="1.5"/><polyline points="28.76 39.5 28.76 31.5 35.76 31.5 35.76 39.5" fill="none" stroke="#338fec" stroke-miterlimit="10" stroke-width="1.5"/><polyline points="28.76 39.5 28.76 31.5 35.76 31.5 35.76 39.5" fill="none" stroke="#338fec" stroke-miterlimit="10" stroke-width="1.5"/><rect x="26.75" y="39.5" width="11" height="10" fill="none"/><rect x="26.76" y="39.5" width="11" height="10" fill="none" stroke="#338fec" stroke-miterlimit="10" stroke-width="1.5"/><rect x="31.5" y="43" width="1.5" height="4" fill="#338fec"/><rect width="90" height="90" fill="none"/></svg>