<svg id="Layer_1" data-name="Layer 1" xmlns="http://www.w3.org/2000/svg" viewBox="0 0 90.15 90"><title>icons-security-data</title><polyline points="11.75 14.65 11.75 8.65 16.25 4.65 66.75 4.65 70.96 8.39 70.96 14.65" fill="none" stroke="#338fec" stroke-miterlimit="10" stroke-width="1.5"/><rect x="0.75" y="14.65" width="22.5" height="65" fill="none" stroke="#338fec" stroke-miterlimit="10" stroke-width="1.5"/><rect x="0.75" y="22.15" width="9" height="4.5" fill="#e7f3ff" stroke="#338fec" stroke-miterlimit="10" stroke-width="1.5"/><line x1="14.25" y1="24.65" x2="23.25" y2="24.65" fill="none" stroke="#338fec" stroke-miterlimit="10" stroke-width="1.5"/><rect x="0.75" y="31.15" width="9" height="4.5" fill="#e7f3ff" stroke="#338fec" stroke-miterlimit="10" stroke-width="1.5"/><line x1="14.25" y1="33.65" x2="23.25" y2="33.65" fill="none" stroke="#338fec" stroke-miterlimit="10" stroke-width="1.5"/><rect x="0.75" y="40.15" width="9" height="4.5" fill="#e7f3ff" stroke="#338fec" stroke-miterlimit="10" stroke-width="1.5"/><line x1="14.25" y1="42.65" x2="23.25" y2="42.65" fill="none" stroke="#338fec" stroke-miterlimit="10" stroke-width="1.5"/><rect x="0.75" y="49.15" width="9" height="4.5" fill="#e7f3ff" stroke="#338fec" stroke-miterlimit="10" stroke-width="1.5"/><line x1="14.25" y1="51.65" x2="23.25" y2="51.65" fill="none" stroke="#338fec" stroke-miterlimit="10" stroke-width="1.5"/><rect x="0.75" y="58.15" width="9" height="4.5" fill="#e7f3ff" stroke="#338fec" stroke-miterlimit="10" stroke-width="1.5"/><line x1="14.25" y1="60.65" x2="23.25" y2="60.65" fill="none" stroke="#338fec" stroke-miterlimit="10" stroke-width="1.5"/><rect x="0.75" y="67.15" width="9" height="4.5" fill="#e7f3ff" stroke="#338fec" stroke-miterlimit="10" stroke-width="1.5"/><line x1="14.25" y1="69.65" x2="23.25" y2="69.65" fill="none" stroke="#338fec" stroke-miterlimit="10" stroke-width="1.5"/><rect x="59.46" y="14.65" width="22.5" height="65" fill="none" stroke="#338fec" stroke-miterlimit="10" stroke-width="1.5"/><rect x="59.46" y="22.15" width="9" height="4.5" fill="#e7f3ff" stroke="#338fec" stroke-miterlimit="10" stroke-width="1.5"/><line x1="72.96" y1="24.65" x2="81.96" y2="24.65" fill="none" stroke="#338fec" stroke-miterlimit="10" stroke-width="1.5"/><rect x="59.46" y="31.15" width="9" height="4.5" fill="#e7f3ff" stroke="#338fec" stroke-miterlimit="10" stroke-width="1.5"/><line x1="72.96" y1="33.65" x2="81.96" y2="33.65" fill="none" stroke="#338fec" stroke-miterlimit="10" stroke-width="1.5"/><rect x="59.46" y="40.15" width="9" height="4.5" fill="#e7f3ff" stroke="#338fec" stroke-miterlimit="10" stroke-width="1.5"/><line x1="72.96" y1="42.65" x2="81.96" y2="42.65" fill="none" stroke="#338fec" stroke-miterlimit="10" stroke-width="1.5"/><rect x="59.46" y="49.15" width="9" height="4.5" fill="#e7f3ff" stroke="#338fec" stroke-miterlimit="10" stroke-width="1.5"/><line x1="72.96" y1="51.65" x2="81.96" y2="51.65" fill="none" stroke="#338fec" stroke-miterlimit="10" stroke-width="1.5"/><rect x="59.46" y="58.15" width="9" height="4.5" fill="#e7f3ff" stroke="#338fec" stroke-miterlimit="10" stroke-width="1.5"/><line x1="72.96" y1="60.65" x2="81.96" y2="60.65" fill="none" stroke="#338fec" stroke-miterlimit="10" stroke-width="1.5"/><rect x="59.46" y="67.15" width="9" height="4.5" fill="#e7f3ff" stroke="#338fec" stroke-miterlimit="10" stroke-width="1.5"/><line x1="72.96" y1="69.65" x2="81.96" y2="69.65" fill="none" stroke="#338fec" stroke-miterlimit="10" stroke-width="1.5"/><polygon points="52.75 85.15 30.25 85.15 30.25 20.15 41.5 20.15 52.75 20.15 52.75 85.15" fill="none" stroke="#338fec" stroke-miterlimit="10" stroke-width="1.5"/><rect x="30.25" y="27.65" width="9" height="4.5" fill="#e7f3ff" stroke="#338fec" stroke-miterlimit="10" stroke-width="1.5"/><line x1="43.75" y1="30.15" x2="52.75" y2="30.15" fill="none" stroke="#338fec" stroke-miterlimit="10" stroke-width="1.5"/><rect x="30.25" y="36.65" width="9" height="4.5" fill="#e7f3ff" stroke="#338fec" stroke-miterlimit="10" stroke-width="1.5"/><line x1="43.75" y1="39.15" x2="52.75" y2="39.15" fill="none" stroke="#338fec" stroke-miterlimit="10" stroke-width="1.5"/><rect x="30.25" y="45.65" width="9" height="4.5" fill="#e7f3ff" stroke="#338fec" stroke-miterlimit="10" stroke-width="1.5"/><line x1="43.75" y1="48.15" x2="52.75" y2="48.15" fill="none" stroke="#338fec" stroke-miterlimit="10" stroke-width="1.5"/><rect x="30.25" y="54.65" width="9" height="4.5" fill="#e7f3ff" stroke="#338fec" stroke-miterlimit="10" stroke-width="1.5"/><line x1="43.75" y1="57.15" x2="52.75" y2="57.15" fill="none" stroke="#338fec" stroke-miterlimit="10" stroke-width="1.5"/><rect x="30.25" y="63.65" width="9" height="4.5" fill="#e7f3ff" stroke="#338fec" stroke-miterlimit="10" stroke-width="1.5"/><line x1="43.75" y1="66.15" x2="52.75" y2="66.15" fill="none" stroke="#338fec" stroke-miterlimit="10" stroke-width="1.5"/><rect x="30.25" y="72.65" width="9" height="4.5" fill="#e7f3ff" stroke="#338fec" stroke-miterlimit="10" stroke-width="1.5"/><line x1="43.75" y1="75.15" x2="52.75" y2="75.15" fill="none" stroke="#338fec" stroke-miterlimit="10" stroke-width="1.5"/><line x1="37.25" y1="4.65" x2="37.25" y2="20.15" fill="none" stroke="#338fec" stroke-miterlimit="10" stroke-width="1.5"/><line x1="46.08" y1="4.65" x2="46.08" y2="20.15" fill="none" stroke="#338fec" stroke-miterlimit="10" stroke-width="1.5"/><rect x="0.15" width="90" height="90" fill="none" opacity="0.4"/></svg>