<svg width="43" height="43" xmlns="http://www.w3.org/2000/svg"><path d="M15.424 2.103c-.594.353-1.155.686-1.616.877-.504.21-1.164.382-1.863.565-1.76.46-3.949 1.033-5.657 2.743-1.71 1.708-2.282 3.896-2.742 5.655-.183.7-.356 1.36-.565 1.866-.19.458-.523 1.019-.875 1.61C1.166 17.002 0 18.966 0 21.467c0 2.502 1.166 4.466 2.104 6.045.353.594.685 1.154.877 1.614.21.506.382 1.166.565 1.866.46 1.758 1.032 3.946 2.741 5.656 1.71 1.709 3.897 2.28 5.655 2.741.704.184 1.363.356 1.866.566.461.19 1.022.524 1.615.876 1.58.938 3.543 2.104 6.045 2.104 2.501 0 4.466-1.166 6.043-2.104.596-.354 1.157-.687 1.614-.876.505-.21 1.164-.382 1.862-.565 1.764-.461 3.952-1.033 5.66-2.742 1.709-1.71 2.282-3.897 2.742-5.655.183-.7.356-1.361.565-1.866.191-.461.525-1.021.877-1.615.937-1.579 2.104-3.543 2.104-6.045 0-2.5-1.167-4.464-2.103-6.042-.353-.594-.687-1.156-.878-1.615-.209-.506-.382-1.166-.565-1.865-.46-1.76-1.033-3.948-2.742-5.656-1.708-1.71-3.897-2.283-5.656-2.742-.7-.183-1.36-.357-1.865-.566-.46-.191-1.021-.524-1.615-.877C25.933 1.166 23.97 0 21.468 0c-2.502 0-4.466 1.166-6.044 2.103m-2.135 11.89c-.29-.071-.584-.166-.806-.365-.921-.824.586-1.396 1.216-1.549 3.152-.762 6.397-1.116 9.64-1.16 1.76-.022 3.538.047 5.249.467.77.188 1.54.458 2.154.958.3.244.57.564.617.947.049.383-.204.818-.588.854a1.274 1.274 0 0 1-.396-.048c-.207-.048-.408-.096-.575.018-.21.143-.213.45-.152.698.352 1.442 1.967 2.278 2.411 3.696.06.186.09.409-.035.56-.101.124-.273.159-.431.186-.737.125-1.48.25-2.227.22-.747-.03-1.508-.228-2.095-.691-.856-.675-1.221-1.79-1.905-2.639-.738-.915-1.826-1.481-2.975-1.772a7.295 7.295 0 0 0-.685-.14c-1.39-.223-2.809-.113-4.214-.031-.558.032-1.12.06-1.68.06-.85 0-1.699-.064-2.523-.269m2.584 7.44c-.404-.111-.827-.25-1.1-.57-.533-.626-.3-1.787.194-2.368.553-.649 1.494-.887 2.294-1.045a20.34 20.34 0 0 1 4.32-.377c.597.012 1.229.062 1.716.41.565.403.807 1.112 1.016 1.774.037.12.077.246.084.371a.62.62 0 0 1-.016.196c-.047.178-.183.317-.32.44-1.07.962-2.489 1.485-3.92 1.628-.3.03-.601.044-.902.044-1.134 0-2.27-.2-3.366-.503m17.842 5.109a.536.536 0 0 1-.23-.11c-.393-.275-.768-.59-1.022-.997-.732-1.174-.665-3.198.432-4.108a.433.433 0 0 1 .205-.11c.111-.014.216.05.304.12.822.638 1.112 1.74 1.272 2.771.051.33.095.67.076 1.002-.007.11-.02.22-.042.33-.09.436-.345.862-.75 1.05a.48.48 0 0 1-.204.054c-.014 0-.027 0-.04-.002m-7.8.5a3.854 3.854 0 0 1-.849-.09 31.322 31.322 0 0 1-1.888-.5 3.075 3.075 0 0 1-.767-.363c-.234-.152-.332-.403-.312-.69.015-.213.024-.427.035-.652 0-.201.007-.415 0-.63-.011-.297.077-.567.292-.763a3.75 3.75 0 0 1 .74-.546c.654-.35 1.322-.67 1.989-.993.59-.288 1.204-.348 1.834-.14.49.163.979.33 1.465.504.579.207.928.594.942 1.236.008.371.018.742.034 1.112.027.634-.28 1.074-.81 1.37-.52.29-1.05.56-1.577.839-.35.185-.722.307-1.119.307h-.008m2.834 5.598c-.453-.224-.892-.476-1.34-.71-.443-.234-.613-.597-.485-1.079a92.4 92.4 0 0 1 .453-1.658c.136-.48.449-.833.865-1.08a51.532 51.532 0 0 1 1.996-1.127c.416-.224.838-.23 1.232.082.247.194.502.381.757.565.431.308.544.745.484 1.236-.07.574-.16 1.146-.256 1.717-.09.526-.356.942-.83 1.209-.474.267-.95.533-1.428.795-.254.14-.528.22-.835.257-.204-.066-.422-.112-.613-.207" fill="#A4B5BF" fill-rule="evenodd"/></svg>