<svg width="182" height="121" xmlns="http://www.w3.org/2000/svg" xmlns:xlink="http://www.w3.org/1999/xlink"><defs><path d="M.571 2.159C.571 1.056 1.47.16 2.574.16h148.887a2 2 0 0 1 2.003 1.998v184.315H.57V2.16z" id="a"/></defs><g transform="rotate(-90 74 79)" fill="none" fill-rule="evenodd" opacity=".2"><mask id="b" fill="#fff"><use xlink:href="#a"/></mask><path d="M147.368 9.834L106.623 50.58c-6.136 6.135-6.136 16.082 0 22.217l40.747 40.747c6.133 6.133 16.075 6.133 22.208 0l40.747-40.747c6.136-6.135 6.136-16.082 0-22.217L169.58 9.834c-6.133-6.133-16.077-6.133-22.21 0z" stroke="#FFF" stroke-linecap="round" stroke-linejoin="round" mask="url(#b)"/><path stroke="#FFF" stroke-linecap="round" stroke-linejoin="round" mask="url(#b)" d="M95.514 124.648l31.48-31.48 31.48 31.48-31.48 31.48zm-62.952 15.7l-.008 47.26 62.96-62.96-47.24-.008c-8.677 0-15.712 7.031-15.712 15.708z"/><path d="M124.9 124.648a2.093 2.093 0 1 1 4.187-.001 2.093 2.093 0 0 1-4.187.001" fill="#FFF" mask="url(#b)"/><path d="M124.9 124.648a2.093 2.093 0 1 1 4.187-.001 2.093 2.093 0 0 1-4.187.001z" stroke="#FFF" stroke-linecap="round" stroke-linejoin="round" mask="url(#b)"/><path d="M93.42 187.608a2.094 2.094 0 1 1 4.188 0 2.094 2.094 0 0 1-4.188 0" fill="#FFF" mask="url(#b)"/><path d="M95.514 187.608l31.48-31.48" stroke="#FFF" stroke-linecap="round" stroke-linejoin="round" mask="url(#b)"/><path d="M64.035 156.127H127.3m-58.768-4.497h54.227m-49.729-4.497h45.187m-40.691-4.497h36.15" stroke="#FFF" stroke-linecap="round" stroke-linejoin="round" stroke-dasharray="0,3" mask="url(#b)"/><path d="M85.036 138.139h22.594m-18.097-4.497h13.556m-9.059-4.497h4.52" stroke="#FFF" stroke-linecap="round" stroke-linejoin="round" stroke-dasharray="0,3.013" mask="url(#b)"/></g></svg>