<svg width="233" height="170" xmlns="http://www.w3.org/2000/svg" xmlns:xlink="http://www.w3.org/1999/xlink"><defs><path d="M0 2.268A2 2 0 0 1 2.004.263H179.21c1.107 0 2.004.893 2.004 2.005V261H0V2.268z" id="a"/></defs><g transform="matrix(0 1 1 0 -16 -11)" fill="none" fill-rule="evenodd" opacity=".2"><mask id="b" fill="#fff"><use xlink:href="#a"/></mask><path d="M192.368 5.834L151.623 46.58c-6.136 6.135-6.136 16.082 0 22.217l40.747 40.747c6.133 6.133 16.075 6.133 22.208 0l40.747-40.747c6.136-6.135 6.136-16.082 0-22.217L214.58 5.834c-6.133-6.133-16.077-6.133-22.21 0z" stroke="#FFF" stroke-linecap="round" stroke-linejoin="round" mask="url(#b)"/><path stroke="#FFF" stroke-linecap="round" stroke-linejoin="round" mask="url(#b)" d="M140.514 120.648l31.48-31.48 31.48 31.48-31.48 31.48zm-62.953 15.7l-.008 47.26 62.96-62.96-47.239-.008c-8.677 0-15.712 7.031-15.713 15.708zm157.393 78.74l-31.48-31.48h-62.96l62.961 62.96"/><path d="M169.9 120.648a2.093 2.093 0 1 1 4.187-.001 2.093 2.093 0 0 1-4.187.001" fill="#FFF" mask="url(#b)"/><path d="M169.9 120.648a2.093 2.093 0 1 1 4.187-.001 2.093 2.093 0 0 1-4.187.001z" stroke="#FFF" stroke-linecap="round" stroke-linejoin="round" mask="url(#b)"/><path d="M12.5 183.608a2.094 2.094 0 1 1 4.188 0 2.094 2.094 0 0 1-4.188 0" fill="#FFF" mask="url(#b)"/><path d="M12.5 183.608a2.094 2.094 0 1 1 4.188 0 2.094 2.094 0 0 1-4.188 0zm65.054 0l62.96 62.96 20.375-20.375c6.133-6.133 6.133-16.077 0-22.21l-20.375-20.375h-62.96z" stroke="#FFF" stroke-linecap="round" stroke-linejoin="round" mask="url(#b)"/><path stroke="#FFF" stroke-linecap="round" stroke-linejoin="round" mask="url(#b)" d="M140.514 246.568l-62.96-62.96-31.48 31.48 31.48 31.48"/><path d="M138.42 246.568a2.094 2.094 0 1 1 4.188 0 2.094 2.094 0 0 1-4.188 0m0-62.96a2.094 2.094 0 1 1 4.188 0 2.094 2.094 0 0 1-4.188 0" fill="#FFF" mask="url(#b)"/><path d="M140.514 183.608l31.48-31.48" stroke="#FFF" stroke-linecap="round" stroke-linejoin="round" mask="url(#b)"/><path d="M14.596 246.567h62.96m-58.463-4.497h53.965m-49.468-4.497h44.97m-40.474-4.497h35.978m-31.481-4.497h26.983m-22.486-4.497h17.988m-13.491-4.497h8.994" stroke="#FFF" mask="url(#b)"/><path d="M46.074 215.088l-31.48-31.48" fill="#FFF" mask="url(#b)"/><path d="M46.074 215.088l-31.48-31.48" stroke="#FFF" stroke-linecap="round" stroke-linejoin="round" mask="url(#b)"/><path d="M109.035 152.127H172.3m-58.768-4.497h54.227m-49.729-4.497h45.187m-40.691-4.497h36.15" stroke="#FFF" stroke-linecap="round" stroke-linejoin="round" stroke-dasharray="0,3" mask="url(#b)"/><path d="M130.036 134.139h22.594m-18.097-4.497h13.556m-9.059-4.497h4.52" stroke="#FFF" stroke-linecap="round" stroke-linejoin="round" stroke-dasharray="0,3.013" mask="url(#b)"/></g></svg>