<svg width="130" height="64" xmlns="http://www.w3.org/2000/svg"><g stroke="#FFF" fill="none" fill-rule="evenodd" opacity=".2" stroke-linecap="round" stroke-linejoin="round"><path d="M66.208.086l-62.96 62.96h62.96l62.96-62.96"/><path d="M66.208.086l31.48 31.48 31.48-31.48M3.248 3.4L.5 6.147m2.748 3.88L.5 12.775m2.748 3.879L.5 19.404m2.748 3.878L.5 26.03m2.748 3.88L.5 32.656m2.748 3.88L.5 39.286m2.748 3.878L.5 45.912m2.748 3.879L.5 52.541m2.748 3.878L.5 59.167M9.876 3.4l-2.75 2.748m2.75 3.879l-2.75 2.748m2.75 3.879l-2.75 2.75m2.75 3.878l-2.75 2.748m2.75 3.88l-2.75 2.747m2.75 3.879l-2.75 2.75m2.75 3.878l-2.75 2.748m2.75 3.879l-2.75 2.75m2.75 3.878l-2.75 2.748M16.503 3.4l-2.748 2.748m2.748 3.879l-2.748 2.748m2.748 3.879l-2.748 2.75m2.748 3.878l-2.748 2.748m2.748 3.88l-2.748 2.747m2.748 3.879l-2.748 2.75m2.748 3.878l-2.748 2.748m2.748 3.879l-2.748 2.75M23.13 3.4l-2.749 2.748m2.749 3.879l-2.749 2.748m2.749 3.879l-2.749 2.75m2.749 3.878l-2.749 2.748m2.749 3.88l-2.749 2.747m2.749 3.879l-2.749 2.75m2.749 3.878l-2.749 2.748M29.758 3.4l-2.75 2.748m2.75 3.879l-2.75 2.748m2.75 3.879l-2.75 2.75m2.75 3.878l-2.75 2.748m2.75 3.88l-2.75 2.747m2.749 3.879l-2.749 2.75M36.385 3.4l-2.749 2.748m2.749 3.879l-2.749 2.748m2.749 3.879l-2.749 2.75m2.749 3.878l-2.749 2.748m2.749 3.88l-2.749 2.747M43.012 3.4l-2.749 2.748m2.749 3.879l-2.749 2.748m2.749 3.879l-2.749 2.75m2.749 3.878l-2.749 2.748M49.64 3.4l-2.75 2.748m2.75 3.879l-2.75 2.748m2.75 3.879l-2.75 2.75M56.267 3.4l-2.749 2.748m2.749 3.879l-2.749 2.748M62.894 3.4l-2.748 2.749"/></g></svg>