<svg id="Layer_1" data-name="Layer 1" xmlns="http://www.w3.org/2000/svg" viewBox="0 0 90 90"><title>icons-collaborate-mywork</title><rect x="0.8" y="5" width="80" height="28" fill="#e7f3ff" stroke="#338fec" stroke-miterlimit="10" stroke-width="1.5"/><rect x="0.8" y="33" width="80" height="26" fill="none" stroke="#338fec" stroke-miterlimit="10" stroke-width="1.5"/><rect x="0.8" y="5" width="80" height="80" fill="none" stroke="#338fec" stroke-miterlimit="10" stroke-width="1.5"/><rect x="5.8" y="11" width="8" height="8" fill="#fff" stroke="#338fec" stroke-miterlimit="10" stroke-width="1.5"/><rect x="5.8" y="64" width="8" height="8" fill="#e7f3ff"/><rect x="22.8" y="64" width="40" height="16" fill="#e7f3ff"/><rect x="66.8" y="64" width="8" height="4" fill="#e7f3ff"/><rect x="5.8" y="37.85" width="8" height="8" fill="#e7f3ff"/><rect x="22.8" y="37.85" width="40" height="16" fill="#e7f3ff"/><rect x="66.8" y="37.85" width="8" height="4" fill="#e7f3ff"/><rect x="22.56" y="10.7" width="24" height="16" fill="#fff" stroke="#338fec" stroke-miterlimit="10"/><rect x="50.8" y="11" width="24" height="16" fill="#fff" stroke="#338fec" stroke-miterlimit="10" stroke-width="1.5"/><polygon points="54.3 15.17 54.3 16.83 55.97 18.5 57.63 18.5 59.3 16.83 59.3 15.17 57.63 13.5 55.97 13.5 54.3 15.17" fill="#e7f3ff"/><polygon points="26.3 15.17 26.3 16.83 27.97 18.5 29.63 18.5 31.3 16.83 31.3 15.17 29.63 13.5 27.97 13.5 26.3 15.17" fill="#e7f3ff"/><polygon points="22.8 27 26.8 23 28.8 25 32.8 21 34.8 23 40.8 15 46.8 23 46.8 27 22.8 27" fill="#e7f3ff"/><rect x="0.8" y="5" width="80" height="80" fill="none" stroke="#338fec" stroke-miterlimit="10" stroke-width="1.5"/><rect x="50.8" y="21" width="24" height="6" fill="#e7f3ff"/><rect x="22.56" y="10.7" width="24" height="16" fill="none" stroke="#338fec" stroke-miterlimit="10" stroke-width="1.5"/><rect x="50.8" y="10.7" width="24" height="16" fill="none" stroke="#338fec" stroke-miterlimit="10" stroke-width="1.5"/><rect width="90" height="90" fill="none" opacity="0.4"/></svg>